<svg class="svg-icon" style="width: 1em;height: 1em;vertical-align: middle;fill: currentColor;overflow: hidden;" viewBox="0 0 1024 1024" version="1.1" xmlns="http://www.w3.org/2000/svg"><path d="M707.539478 628.646957a40.425739 40.425739 0 0 0 40.603826-40.247653V236.499478a40.425739 40.425739 0 0 0-40.603826-40.247652h-111.660521a40.425739 40.425739 0 0 0-40.603827 40.247652v351.899826c0 22.216348 18.16487 40.247652 40.603827 40.247653a40.425739 40.425739 0 0 0 40.603826-40.247653v-311.652174h30.452869v311.652174c0 22.216348 18.16487 40.247652 40.603826 40.247653zM463.827478 628.646957a40.425739 40.425739 0 0 0 40.603826-40.247653V236.499478a40.425739 40.425739 0 0 0-40.603826-40.247652H352.166957a40.425739 40.425739 0 0 0-40.603827 40.247652v351.899826c0 22.216348 18.209391 40.247652 40.603827 40.247653a40.425739 40.425739 0 0 0 40.603826-40.247653v-311.652174h30.452869v311.652174c0 22.216348 18.209391 40.247652 40.603826 40.247653zM883.44487 588.399304V236.499478a40.425739 40.425739 0 0 0-40.603827-40.247652 40.425739 40.425739 0 0 0-40.603826 40.247652v351.899826c0 22.216348 18.16487 40.247652 40.603826 40.247653a40.425739 40.425739 0 0 0 40.603827-40.247653zM214.906435 628.646957a40.425739 40.425739 0 0 0 40.603826-40.247653V236.499478a40.425739 40.425739 0 0 0-40.603826-40.247652 40.425739 40.425739 0 0 0-40.603826 40.247652v351.899826c0 22.216348 18.209391 40.247652 40.603826 40.247653zM122.835478 719.382261V236.499478a40.425739 40.425739 0 0 0-40.603826-40.247652 40.425739 40.425739 0 0 0-40.603826 40.247652v482.882783c0 22.26087 18.16487 40.247652 40.603826 40.247652a40.425739 40.425739 0 0 0 40.603826-40.247652zM975.515826 196.251826a40.425739 40.425739 0 0 0-40.603826 40.247652v482.882783c0 22.26087 18.16487 40.247652 40.603826 40.247652a40.425739 40.425739 0 0 0 40.603826-40.247652V236.499478a40.425739 40.425739 0 0 0-40.603826-40.247652z" fill="#000A64" /></svg>