<svg class="svg-icon" style="width: 1em;height: 1em;vertical-align: middle;fill: currentColor;overflow: hidden;" viewBox="0 0 1024 1024" version="1.1" xmlns="http://www.w3.org/2000/svg"><path d="M862.952727 38.539636l-136.936727 93.370182-114.036364-93.370182L498.036364 131.909818 384.232727 38.539636 270.382545 131.909818 133.585455 38.539636V927.650909h729.367272z" fill="#00FFB0" /><path d="M133.585455 970.007273h729.367272a40.494545 40.494545 0 0 0 40.541091-40.494546V40.494545A40.634182 40.634182 0 0 0 840.145455 7.074909L728.250182 83.316364 637.672727 9.169455a40.634182 40.634182 0 0 0-51.432727 0L498.036364 81.454545 409.972364 9.216a40.680727 40.680727 0 0 0-51.479273 0L268.101818 83.269818 156.532364 7.074909a40.634182 40.634182 0 0 0-41.797819-2.373818A40.401455 40.401455 0 0 0 93.090909 40.448V929.512727c0 22.341818 18.152727 40.401455 40.494546 40.401455z m40.54109-852.945455L247.482182 167.098182c14.894545 10.146909 34.676364 9.262545 48.64-2.141091l88.110545-72.238546 88.110546 72.238546a40.680727 40.680727 0 0 0 51.479272 0l88.157091-72.285091 88.343273 72.285091a40.587636 40.587636 0 0 0 48.593455 2.141091l73.541818-50.129455v772.142546H174.126545V117.061818z" fill="#000A64" /><path d="M475.694545 265.588364a40.587636 40.587636 0 0 0-56.180363 11.264L354.769455 373.992727l-32.395637-33.698909a40.587636 40.587636 0 0 0-57.297454-1.163636 40.354909 40.354909 0 0 0-1.210182 57.157818l67.397818 70.004364a40.541091 40.541091 0 0 0 62.976-5.585455l92.718545-139.077818a40.308364 40.308364 0 0 0-11.310545-56.040727zM475.694545 569.018182a40.587636 40.587636 0 0 0-56.180363 11.264l-64.744727 97.093818-32.395637-33.652364a40.634182 40.634182 0 0 0-57.297454-1.163636 40.354909 40.354909 0 0 0-1.210182 57.111273l67.397818 70.050909a40.541091 40.541091 0 0 0 62.976-5.585455l92.718545-139.124363a40.308364 40.308364 0 0 0-11.310545-55.994182zM700.834909 351.232h-112.779636a40.494545 40.494545 0 0 0 0 80.849455h112.779636a40.494545 40.494545 0 0 0 40.541091-40.494546 40.494545 40.494545 0 0 0-40.494545-40.354909zM700.834909 654.661818h-112.779636a40.494545 40.494545 0 0 0 0 80.849455h112.779636a40.494545 40.494545 0 0 0 40.541091-40.448 40.494545 40.494545 0 0 0-40.494545-40.401455z" fill="#000A64" /></svg>