<svg class="svg-icon" style="width: 1em;height: 1em;vertical-align: middle;fill: currentColor;overflow: hidden;" viewBox="0 0 1024 1024" version="1.1" xmlns="http://www.w3.org/2000/svg"><path d="M310.504727 166.725818a102.260364 102.260364 0 1 1-144.570182 144.570182l-95.883636 95.883636L625.105455 962.280727l95.930181-95.883636a102.260364 102.260364 0 1 1 144.616728-144.570182l95.883636-95.883636L406.388364 70.842182l-95.883637 95.883636z" fill="#00FFB0" /><path d="M435.106909 44.078545a40.494545 40.494545 0 0 0-57.297454 0l-95.883637 95.883637a40.494545 40.494545 0 0 0-0.046545 57.250909 61.905455 61.905455 0 0 1 0.046545 87.365818c-11.636364 11.636364-27.136 18.059636-43.613091 18.059636-16.523636 0-32.023273-6.423273-43.706182-18.152727a41.751273 41.751273 0 0 0-57.297454 0L41.425455 380.416a40.494545 40.494545 0 0 0 0 57.250909l195.258181 195.258182s0 0.093091 0.093091 0.093091l0.046546 0.093091 359.703272 359.703272a40.401455 40.401455 0 0 0 57.25091 0l95.883636-95.83709a40.541091 40.541091 0 0 0 0-57.344 61.812364 61.812364 0 0 1 0-87.319273 61.905455 61.905455 0 0 1 87.365818 0 41.704727 41.704727 0 0 0 57.250909 0l95.883637-95.837091a40.494545 40.494545 0 0 0 0-57.250909L435.060364 44.032z m426.402909 626.501819a143.173818 143.173818 0 0 0-169.192727 24.436363 143.080727 143.080727 0 0 0-24.436364 169.146182l-42.775272 42.728727-302.452364-302.545454 28.066909-28.066909a40.494545 40.494545 0 0 0-57.344-57.250909l-28.020364 28.066909-138.007272-138.007273 42.682181-42.682182a141.963636 141.963636 0 0 0 68.189091 17.268364h0.046546c38.167273 0 74.007273-14.848 101.003636-41.797818a143.173818 143.173818 0 0 0 24.436364-169.146182l42.728727-42.682182 138.007273 138.007273-28.066909 28.066909a40.494545 40.494545 0 0 0 57.250909 57.297454l28.113454-28.066909 302.452364 302.498909-42.682182 42.682182z" fill="#000A64" /><path d="M433.338182 379.205818l-56.785455 56.785455a40.494545 40.494545 0 0 0 57.344 57.250909l56.692364-56.738909a40.494545 40.494545 0 0 0-57.250909-57.297455z" fill="#000A64" /></svg>